<svg width="775" height="847" viewBox="0 0 775 847" fill="none" xmlns="http://www.w3.org/2000/svg">
<g clip-path="url(#clip0)">
<path d="M625.467 60.3704V708.57C625.459 716.292 622.387 723.695 616.925 729.153C611.464 734.611 604.059 737.678 596.337 737.68H333.187C329.362 737.687 325.572 736.939 322.036 735.479C318.5 734.018 315.287 731.875 312.581 729.17C309.875 726.466 307.729 723.255 306.267 719.72C304.804 716.185 304.053 712.396 304.057 708.57V60.3704C304.057 56.5449 304.81 52.7568 306.274 49.2225C307.738 45.6881 309.883 42.4767 312.588 39.7717C315.293 37.0666 318.505 34.9209 322.039 33.4571C325.573 31.9933 329.362 31.2401 333.187 31.2404H372.567V36.2904C372.566 42.6515 375.092 48.7524 379.589 53.2513C384.086 57.7501 390.186 60.2786 396.547 60.2804H530.387C535.507 60.2913 540.494 58.6501 544.607 55.6004C545.438 54.9956 546.227 54.3341 546.967 53.6204C549.31 51.3834 551.174 48.6939 552.446 45.7149C553.718 42.7359 554.371 39.5296 554.367 36.2904V31.2404H596.337C600.163 31.2392 603.951 31.9919 607.486 33.4554C611.021 34.9189 614.233 37.0646 616.938 39.7698C619.643 42.475 621.789 45.6867 623.252 49.2215C624.716 52.7562 625.468 56.5447 625.467 60.3704V60.3704Z" fill="#F2F2F2"/>
<path d="M472.201 493.425C503.681 493.425 529.201 467.906 529.201 436.425C529.201 404.945 503.681 379.425 472.201 379.425C440.721 379.425 415.201 404.945 415.201 436.425C415.201 467.906 440.721 493.425 472.201 493.425Z" fill="#A0616A"/>
<path d="M615.469 776H310.899C304.04 776.021 297.318 774.085 291.52 770.42C286.872 767.525 283.03 763.504 280.349 758.73C277.669 753.955 276.236 748.582 276.184 743.106V32.916C276.184 14.7661 291.757 1.90735e-05 310.899 1.90735e-05H382.477V6.53272C382.477 20.4746 394.479 31.8174 409.232 31.8174H510.138C515.817 31.8489 521.366 30.121 526.022 26.8711C529.323 24.5921 532.032 21.5573 533.923 18.0196C535.814 14.4819 536.832 10.5436 536.893 6.53272V0H615.469C634.611 0 650.184 14.7661 650.184 32.916V743.106C650.156 747.931 649.043 752.687 646.927 757.023C644.811 761.358 641.746 765.162 637.96 768.152C631.58 773.261 623.642 776.03 615.469 776V776ZM310.899 2C292.86 2 278.184 15.8691 278.184 32.916V743.106C278.236 748.246 279.585 753.289 282.104 757.768C284.623 762.248 288.232 766.02 292.596 768.734C298.072 772.195 304.421 774.021 310.899 774H615.469C623.185 774.031 630.678 771.419 636.702 766.598C640.256 763.794 643.133 760.227 645.121 756.161C647.108 752.094 648.155 747.633 648.184 743.106V32.916C648.184 15.8691 633.508 2.00002 615.469 2.00002H538.893V6.53272C538.832 10.8667 537.735 15.1233 535.695 18.9473C533.654 22.7712 530.728 26.0516 527.161 28.5147C522.171 31.9978 516.224 33.8502 510.138 33.8174H409.232C393.376 33.8174 380.477 21.5776 380.477 6.53272V2H310.899Z" fill="#3F3D56"/>
<path d="M559.155 531.787H383.278V342.425H559.155V531.787ZM385.533 529.532H556.9V344.679H385.533V529.532Z" fill="#3F3D56"/>
<path d="M520.811 179.398H405.344V181.653H520.811V179.398Z" fill="#3F3D56"/>
<path d="M520.811 210.092H405.344V212.347H520.811V210.092Z" fill="#3F3D56"/>
<path d="M520.811 240.785H405.344V243.04H520.811V240.785Z" fill="#3F3D56"/>
<path d="M71.5625 774.267L70.4893 773.865C70.2534 773.776 46.7808 764.783 35.7852 744.391C24.7891 723.998 30.1733 699.446 30.229 699.201L30.4824 698.082L31.5552 698.485C31.791 698.574 55.2632 707.567 66.2593 727.958C77.2554 748.351 71.8711 772.904 71.8154 773.149L71.5625 774.267ZM37.5459 743.442C46.8423 760.683 65.3912 769.521 70.0909 771.538C70.9844 766.501 73.7866 746.132 64.4986 728.908C55.2115 711.685 36.6553 702.833 31.9536 700.811C31.0596 705.851 28.2583 726.218 37.5459 743.442Z" fill="#3F3D56"/>
<path d="M44.1884 737.238C63.9489 749.126 71.5594 772.741 71.5594 772.741C71.5594 772.741 47.1316 777.079 27.371 765.191C7.61046 753.302 1.52588e-05 729.688 1.52588e-05 729.688C1.52588e-05 729.688 24.4278 725.349 44.1884 737.238Z" fill="#A0616A"/>
<path d="M707.75 772.239L709.582 802.455L719.654 813.443L740.714 797.877L726.979 766.745L707.75 772.239Z" fill="#A0616A"/>
<path d="M732.473 800.624C732.473 800.624 732.88 794.521 733.592 782.922C733.592 782.922 764.52 776.817 762.689 797.877C760.858 818.937 745.292 826.262 745.292 826.262C745.292 826.262 737.967 825.346 738.882 832.671C739.798 839.997 712.329 855.562 699.51 840.912L707.392 794.672C707.392 794.672 715.991 800.624 718.738 797.877C721.485 795.13 732.473 800.624 732.473 800.624Z" fill="#2F2E41"/>
<path d="M680.723 201.334L706.361 255.357L660.267 267.937L651.422 218.731L680.723 201.334Z" fill="#A0616A"/>
<path d="M654.169 231.55C673.891 231.55 689.879 215.562 689.879 195.84C689.879 176.118 673.891 160.13 654.169 160.13C634.447 160.13 618.459 176.118 618.459 195.84C618.459 215.562 634.447 231.55 654.169 231.55Z" fill="#A0616A"/>
<path d="M677.547 211.162C674.304 210.969 671.138 212.064 667.918 212.492C656.397 214.021 644.412 205.661 641.868 194.322C641.664 192.811 641.214 191.345 640.536 189.981C638.763 187.086 634.725 186.534 631.396 187.199C628.067 187.865 624.912 189.423 621.522 189.601C616.287 189.876 611.262 186.653 608.473 182.216C605.683 177.778 604.893 172.318 605.27 167.09L607.779 169.723C608.799 167.566 609.193 165.166 608.915 162.796C610.245 162.442 611.644 162.435 612.977 162.777C614.31 163.118 615.533 163.795 616.529 164.745C618.742 164.98 617.072 160.641 618.716 159.141C619.404 158.513 620.459 158.631 621.391 158.64C626.098 158.686 629.906 155.086 633.615 152.187C640.042 147.177 647.557 143.749 655.554 142.18C660.869 141.143 666.521 140.977 671.562 142.956C675.702 144.581 679.167 147.542 682.372 150.624C690.264 158.213 697.252 167.129 700.535 177.573C703.204 186.128 703.28 195.282 700.753 203.879C699.43 208.344 695.443 223.636 689.606 223.992C682.272 224.439 686.675 211.707 677.547 211.162Z" fill="#2F2E41"/>
<path d="M632.651 772.239L630.82 802.455L620.748 813.443L599.688 797.877L613.423 766.745L632.651 772.239Z" fill="#A0616A"/>
<path d="M644.097 249.863C644.097 249.863 648.675 215.984 692.626 226.972C736.577 237.96 741.155 248.032 741.155 248.032C741.155 248.032 742.071 257.188 744.818 258.104C747.565 259.02 754.89 263.598 751.227 266.345C747.565 269.092 767.709 296.561 767.709 296.561C767.709 296.561 779.612 303.886 772.287 338.681C764.962 373.475 756.721 423.836 756.721 423.836C756.721 423.836 759.468 440.317 755.806 449.474C752.143 458.63 759.468 465.04 759.468 468.702C759.468 472.365 757.637 490.678 757.637 490.678C757.637 490.678 633.109 486.1 615.712 490.678C598.315 495.256 644.097 249.863 644.097 249.863Z" fill="#575A89"/>
<path d="M753.517 482.895C753.517 482.895 760.842 500.292 753.517 528.677C746.191 557.062 744.36 628.482 744.36 628.482C744.36 628.482 744.36 766.745 737.951 774.07C731.541 781.395 733.372 793.299 733.372 793.299H705.903C705.903 793.299 706.819 778.648 703.156 770.407C699.494 762.167 700.409 673.349 700.409 673.349L684.843 548.821L653.711 666.94C653.711 666.94 641.808 754.842 637.23 758.504C632.651 762.167 637.23 776.817 637.23 776.817C627.819 778.227 618.204 776.625 609.76 772.239V757.588C609.76 757.588 596.026 752.095 600.604 731.95C605.182 711.806 603.351 492.967 617.085 482.895C630.82 472.823 753.517 482.895 753.517 482.895Z" fill="#2F2E41"/>
<path d="M607.929 800.624C607.929 800.624 607.522 794.521 606.81 782.922C606.81 782.922 575.881 776.817 577.713 797.877C579.544 818.937 595.11 826.262 595.11 826.262C595.11 826.262 602.435 825.346 601.519 832.671C600.604 839.997 628.073 855.562 640.892 840.912L633.01 794.672C633.01 794.672 624.411 800.624 621.664 797.877C618.917 795.13 607.929 800.624 607.929 800.624Z" fill="#2F2E41"/>
<path d="M595.568 486.1L592.821 498.919C592.821 498.919 559.858 551.11 587.327 556.604C614.796 562.098 612.965 506.244 612.965 506.244L615.712 494.34L595.568 486.1Z" fill="#A0616A"/>
<path d="M628.073 257.646C628.073 257.646 647.302 244.827 656.458 260.393C665.615 275.959 674.771 311.669 674.771 311.669L662.868 398.655L618.917 499.376L592.363 489.304C592.363 489.304 596.941 476.485 595.11 470.991C593.279 465.498 602.435 451.763 602.435 451.763L611.592 380.343C611.592 380.343 615.254 258.562 628.073 257.646Z" fill="#575A89"/>
<path opacity="0.1" d="M662.41 396.366L632.194 505.328L618.459 499.834L662.41 396.366Z" fill="black"/>
<path opacity="0.1" d="M733.401 282.547C740.85 282.58 748.274 281.685 755.503 279.885L755.054 278.109C737.952 282.437 718.615 281.372 697.579 274.941C678.863 269.219 661.182 260.055 644.084 251.192L643.241 252.818C660.412 261.718 678.168 270.922 697.044 276.693C708.807 280.433 721.059 282.406 733.401 282.547V282.547Z" fill="black"/>
<path d="M441.201 501.425H267.201V688.425H441.201V501.425Z" fill="#A0616A"/>
<path d="M235.517 200.982C223.793 173.32 193.95 168.096 193.95 168.096C193.95 168.096 165.215 160.43 141.218 196.938C118.851 230.966 90.0067 262.848 126.587 276.43L136.249 256.137L137.408 279.491C142.728 280.599 148.104 281.415 153.512 281.935C194.086 286.057 232.334 292.911 233.042 278.248C233.984 258.755 246.797 227.598 235.517 200.982Z" fill="#2F2E41"/>
<path d="M111.729 422.504L109.118 489.08C109.118 489.08 81.7043 542.602 103.896 541.297C126.088 539.992 123.478 489.08 123.478 489.08L131.31 426.42L111.729 422.504Z" fill="#FFB8B8"/>
<path d="M261.852 410.755L269.684 477.332C269.684 477.332 293.181 512.578 274.906 524.327C256.63 536.075 256.63 482.553 256.63 482.553L237.049 414.672L261.852 410.755Z" fill="#FFB8B8"/>
<path d="M234.438 534.77L210.94 626.149C210.94 626.149 200.497 662.7 186.137 680.976L180.916 691.42L160.029 688.809L174.389 630.065L183.527 521.716L234.438 534.77Z" fill="#FFB8B8"/>
<path opacity="0.1" d="M234.438 534.77L210.94 626.149C210.94 626.149 200.497 662.7 186.137 680.976L180.916 691.42L160.029 688.809L174.389 630.065L183.527 521.716L234.438 534.77Z" fill="black"/>
<path d="M154.862 674.235L190.562 682.501L175.849 717.185C175.849 717.185 181.829 737.95 176.132 748.946C170.436 759.943 171.258 779.895 171.258 779.895L163.521 778.676C163.521 778.676 144.736 814.041 122.54 803.938C100.344 793.834 123.952 769.801 123.952 769.801C123.952 769.801 143.143 731.857 145.58 716.383C148.018 700.908 154.862 674.235 154.862 674.235Z" fill="#2F2E41"/>
<path opacity="0.1" d="M154.862 674.235L190.562 682.501L175.849 717.185C175.849 717.185 181.829 737.95 176.132 748.946C170.436 759.943 171.258 779.895 171.258 779.895L163.521 778.676C163.521 778.676 144.736 814.041 122.54 803.938C100.344 793.834 123.952 769.801 123.952 769.801C123.952 769.801 143.143 731.857 145.58 716.383C148.018 700.908 154.862 674.235 154.862 674.235Z" fill="black"/>
<path d="M124.783 515.189L144.364 613.095C144.364 613.095 137.837 661.395 145.67 691.42L153.502 720.139H179.61V614.4C179.61 614.4 180.916 528.243 177 521.716C173.083 515.189 124.783 515.189 124.783 515.189Z" fill="#FFB8B8"/>
<path d="M184.832 709.695L148.28 712.306L157.418 748.858C157.418 748.858 148.28 768.439 152.197 780.188C156.113 791.937 152.197 811.518 152.197 811.518H160.029C160.029 811.518 173.083 849.375 196.581 842.848C220.078 836.321 200.497 808.907 200.497 808.907C200.497 808.907 187.443 768.439 187.443 752.774C187.443 737.109 184.832 709.695 184.832 709.695Z" fill="#2F2E41"/>
<path d="M193.97 258.022C213.436 258.022 229.216 242.242 229.216 222.776C229.216 203.31 213.436 187.529 193.97 187.529C174.504 187.529 158.724 203.31 158.724 222.776C158.724 242.242 174.504 258.022 193.97 258.022Z" fill="#FFB8B8"/>
<path d="M169.82 236.483C169.82 236.483 172.431 280.867 164.598 283.477C156.766 286.088 205.066 283.477 205.066 283.477C205.066 283.477 198.539 256.064 205.066 248.231C211.593 240.399 169.82 236.483 169.82 236.483Z" fill="#FFB8B8"/>
<path d="M205.719 276.298C205.719 276.298 171.778 273.687 165.251 276.298C158.724 278.909 140.448 291.963 140.448 291.963L149.586 374.204L223.994 389.869L235.743 372.898L247.492 348.096L242.27 316.766L240.965 298.49L205.719 276.298Z" fill="#D0CDE1"/>
<path d="M133.921 297.184C133.921 297.184 116.95 301.101 115.645 314.155C114.34 327.209 114.34 359.844 115.645 365.066C116.95 370.288 115.645 372.898 114.34 374.204C113.034 375.509 110.423 372.898 113.034 376.815C115.645 380.731 115.645 380.731 114.34 384.647C113.034 388.563 109.118 383.342 111.729 389.869C114.34 396.396 115.645 397.701 114.34 399.007C113.034 400.312 109.118 430.337 109.118 430.337L131.31 434.253L153.502 357.233L133.921 297.184Z" fill="#D0CDE1"/>
<path d="M235.743 297.184C238.222 297.323 240.619 298.122 242.685 299.499C244.751 300.877 246.411 302.782 247.492 305.017C251.408 312.849 261.852 363.76 260.546 367.677C259.241 371.593 256.63 366.371 259.241 374.204C261.852 382.036 259.241 380.731 260.546 385.953C261.852 391.174 255.324 385.953 260.546 391.174C265.768 396.396 268.379 397.701 265.768 400.312C263.157 402.923 259.241 397.701 263.157 402.923C267.073 408.145 267.073 415.977 267.073 415.977L235.743 422.504L226.605 349.401L235.743 297.184Z" fill="#D0CDE1"/>
<path d="M129.834 295.109L136.247 291.902C136.896 291.578 137.602 291.385 138.325 291.336C139.049 291.286 139.775 291.38 140.461 291.612C141.148 291.844 141.782 292.21 142.327 292.689C142.871 293.168 143.315 293.749 143.634 294.401L173.083 354.623L205.719 375.509L229.216 365.066C229.216 365.066 246.187 338.958 240.965 325.903C237.425 317.053 233.277 303.435 230.973 295.583C230.838 295.121 230.849 294.628 231.004 294.172C231.158 293.716 231.45 293.319 231.838 293.034C232.226 292.75 232.693 292.591 233.174 292.581C233.656 292.571 234.129 292.709 234.529 292.977L238.978 295.944C240.402 296.893 241.395 298.365 241.742 300.041L251.408 346.79L238.354 374.204V400.312L247.492 541.297C247.492 541.297 213.551 536.075 179.61 529.548C145.67 523.021 102.591 517.799 102.591 517.799C102.591 517.799 124.783 402.923 143.059 383.342C143.059 383.342 143.059 368.982 145.67 367.677C148.28 366.371 150.891 357.233 150.891 357.233L127.245 302.185C126.693 300.898 126.653 299.448 127.134 298.133C127.615 296.817 128.581 295.735 129.834 295.109V295.109Z" fill="#2F2E41"/>
<path d="M228.888 190.932L198.98 175.266L157.678 181.675L149.133 219.416L170.404 218.598L176.347 204.732V218.37L186.162 217.992L191.859 195.917L195.419 219.416L230.313 218.704L228.888 190.932Z" fill="#2F2E41"/>
<path d="M158.071 229.629C160.234 229.629 161.987 226.561 161.987 222.776C161.987 218.991 160.234 215.922 158.071 215.922C155.908 215.922 154.155 218.991 154.155 222.776C154.155 226.561 155.908 229.629 158.071 229.629Z" fill="#FFB8B8"/>
<path d="M500.201 436.878H471.748V408.425H470.654V436.878H442.201V437.973H470.654V466.425H471.748V437.973H500.201V436.878Z" fill="#2F2E41"/>
<path d="M411.811 557.398H296.344V559.653H411.811V557.398Z" fill="#F2F2F2"/>
<path d="M411.811 588.092H296.344V590.347H411.811V588.092Z" fill="#F2F2F2"/>
<path d="M411.811 618.785H296.344V621.04H411.811V618.785Z" fill="#F2F2F2"/>
</g>
<defs>
<clipPath id="clip0">
<rect width="774.67" height="846.977" fill="white"/>
</clipPath>
</defs>
</svg>
